<?xml version="1.0" encoding="UTF-8"?>
<svg id="geral" xmlns="http://www.w3.org/2000/svg" viewBox="0 0 735.85 436.73">
  <defs>
    <style>
      .cls-1 {
        fill: none;
        stroke: #43617b;
        stroke-miterlimit: 10;
        stroke-width: 14.17px;
      }

      .cls-2 {
        fill: #577fa4;
      }

      .cls-2, .cls-3, .cls-4 {
        stroke-width: 0px;
      }

      .cls-3 {
        fill: #43617b;
      }

      .cls-4 {
        fill: #fff;
      }
    </style>
  </defs>
  <g id="uniao">
    <path class="cls-1" d="m32.96,335.39c-16.52-31.2-25.87-66.78-25.87-104.54C7.09,107.27,107.27,7.09,230.85,7.09c67.34,0,127.74,29.75,168.76,76.82"/>
  </g>
  <g id="fundo">
    <rect class="cls-4" x="348.82" y="63.15" width="66.28" height="13.45" transform="translate(46.46 -125.61) rotate(19.86)"/>
    <rect class="cls-4" x="-26.08" y="305.7" width="101.7" height="13.45" transform="translate(337.19 287.65) rotate(90)"/>
  </g>
  <g id="torres">
    <g>
      <g>
        <rect class="cls-4" x="65.83" y="378.7" width="14.02" height="58"/>
        <rect class="cls-4" x="175.22" y="337.25" width="14.02" height="99.46"/>
        <rect class="cls-4" x="214.2" y="309.73" width="14.02" height="126.98"/>
        <rect class="cls-4" x="287.41" y="285.88" width="14.02" height="150.82"/>
        <rect class="cls-4" x="360.25" y="260.62" width="14.02" height="176.08"/>
        <rect class="cls-4" x="399.36" y="199.72" width="14.02" height="236.98"/>
        <rect class="cls-4" x="101.31" y="337.13" width="14.02" height="99.57"/>
      </g>
      <g>
        <g>
          <polygon class="cls-4" points="26.85 436.73 39.85 436.73 39.85 208.71 137.93 173.72 137.93 436.73 152.81 436.73 152.81 173.72 250.86 208.71 250.86 436.73 263.79 436.73 263.79 198.74 145.82 156.73 26.85 198.74 26.85 436.73"/>
          <polygon class="cls-4" points="230.84 187.01 217.84 182.38 217.84 93.73 331.34 52.73 444.84 93.73 444.84 436.73 432.84 436.73 432.84 102.73 337.85 69.73 337.85 436.73 324.85 436.73 324.85 69.73 230.84 102.73 230.84 187.01"/>
        </g>
        <g>
          <polygon class="cls-4" points="39.85 379.74 137.93 275.73 137.93 255.71 39.85 358.7 39.85 379.74"/>
          <polygon class="cls-4" points="263.79 275.73 446.84 81.73 457.84 91.71 263.79 296.73 263.79 275.73"/>
          <polygon class="cls-4" points="419.84 82.73 445.84 82.73 456.84 92.73 456.84 119.73 471.84 119.73 471.84 67.73 419.84 67.73 419.84 82.73"/>
        </g>
      </g>
      <g>
        <g>
          <path class="cls-4" d="m499.43,361.72c-2.66,0-5.13-.49-7.4-1.46-2.27-.97-4.24-2.34-5.92-4.09-1.67-1.76-2.97-3.82-3.89-6.18-.92-2.36-1.38-4.95-1.38-7.78s.46-5.41,1.38-7.78c.92-2.36,2.23-4.42,3.92-6.18,1.69-1.76,3.66-3.12,5.92-4.09,2.25-.97,4.71-1.46,7.38-1.46s4.89.44,7.09,1.32c2.2.88,4.09,2.22,5.66,4.01l-1.64,1.81c-1.54-1.61-3.24-2.78-5.1-3.49-1.86-.71-3.83-1.07-5.92-1.07-2.29,0-4.41.42-6.38,1.26-1.96.84-3.67,2.03-5.12,3.57-1.45,1.54-2.58,3.33-3.38,5.39-.8,2.05-1.2,4.29-1.2,6.71s.4,4.65,1.2,6.71c.8,2.05,1.93,3.85,3.38,5.39,1.45,1.54,3.16,2.73,5.12,3.57,1.96.84,4.09,1.26,6.38,1.26,2.08,0,4.05-.36,5.92-1.07,1.86-.71,3.56-1.9,5.1-3.54l1.64,1.81c-1.57,1.8-3.46,3.14-5.66,4.04-2.2.9-4.57,1.35-7.09,1.35Z"/>
          <path class="cls-4" d="m520.99,361.44l16.49-38.47h2.61l16.49,38.47h-2.82l-15.57-36.72h1.13l-15.52,36.72h-2.82Zm6.04-10.83l.87-2.36h21.46l.87,2.36h-23.2Z"/>
          <path class="cls-4" d="m570.11,361.44v-38.47h12.86c3,0,5.58.51,7.73,1.54,2.15,1.03,3.81,2.5,4.97,4.42,1.16,1.92,1.74,4.26,1.74,7.01s-.58,4.98-1.74,6.93c-1.16,1.94-2.82,3.43-4.97,4.45s-4.73,1.54-7.73,1.54h-11.42l1.18-1.32v13.91h-2.61Zm2.61-13.74l-1.18-1.37h11.42c3.86,0,6.79-.91,8.78-2.72,2-1.81,3-4.37,3-7.67s-1-5.91-3-7.72c-2-1.81-4.93-2.72-8.78-2.72h-11.42l1.18-1.37v23.58Z"/>
          <path class="cls-4" d="m613.24,361.44v-38.47h2.61v38.47h-2.61Z"/>
          <path class="cls-4" d="m642.23,361.44v-35.95h-12.91v-2.53h28.43v2.53h-12.91v35.95h-2.61Z"/>
          <path class="cls-4" d="m663.44,361.44l16.49-38.47h2.61l16.49,38.47h-2.82l-15.57-36.72h1.13l-15.52,36.72h-2.82Zm6.04-10.83l.87-2.36h21.46l.87,2.36h-23.2Z"/>
          <path class="cls-4" d="m712.56,361.44v-38.47h2.61v35.95h20.64v2.53h-23.25Z"/>
        </g>
        <g>
          <g>
            <path class="cls-4" d="m480.85,304.32v-89.6h38.6c7.72,0,14.37,1.32,19.96,3.97,5.59,2.65,9.91,6.46,12.97,11.46,3.05,4.99,4.58,10.9,4.58,17.73s-1.53,12.59-4.58,17.54c-3.06,4.95-7.38,8.77-12.97,11.46-5.59,2.69-12.24,4.03-19.96,4.03h-25.33l10.62-11.01v34.43h-23.88Zm23.88-31.74l-10.62-11.65h23.88c4.99,0,8.7-1.15,11.16-3.46,2.45-2.3,3.68-5.5,3.68-9.6s-1.23-7.42-3.68-9.73c-2.45-2.3-6.17-3.46-11.16-3.46h-23.88l10.62-11.65v49.54Z"/>
            <path class="cls-4" d="m593.39,304.32l-36.07-89.6h25.81l30.4,77.57h-15.2l31.12-77.57h23.64l-36.19,89.6h-23.52Z"/>
            <path class="cls-4" d="m658.05,304.32v-89.6h38.6c7.72,0,14.37,1.32,19.96,3.97,5.59,2.65,9.91,6.46,12.97,11.46,3.05,4.99,4.58,10.9,4.58,17.73s-1.53,12.57-4.58,17.47c-3.06,4.91-7.38,8.66-12.97,11.26-5.59,2.6-12.24,3.9-19.96,3.9h-25.33l10.62-10.62v34.43h-23.88Zm23.88-31.74l-10.62-11.65h23.88c4.99,0,8.7-1.15,11.16-3.46,2.45-2.3,3.68-5.5,3.68-9.6s-1.23-7.42-3.68-9.73c-2.45-2.3-6.17-3.46-11.16-3.46h-23.88l10.62-11.65v49.54Zm28.35,31.74l-20.99-32.64h25.45l21.11,32.64h-25.57Z"/>
          </g>
          <g>
            <path class="cls-4" d="m480.85,304.32v-89.6h38.6c7.72,0,14.37,1.32,19.96,3.97,5.59,2.65,9.91,6.46,12.97,11.46,3.05,4.99,4.58,10.9,4.58,17.73s-1.53,12.59-4.58,17.54c-3.06,4.95-7.38,8.77-12.97,11.46-5.59,2.69-12.24,4.03-19.96,4.03h-25.33l10.62-11.01v34.43h-23.88Zm23.88-31.74l-10.62-11.65h23.88c4.99,0,8.7-1.15,11.16-3.46,2.45-2.3,3.68-5.5,3.68-9.6s-1.23-7.42-3.68-9.73c-2.45-2.3-6.17-3.46-11.16-3.46h-23.88l10.62-11.65v49.54Z"/>
            <path class="cls-4" d="m593.39,304.32l-36.07-89.6h25.81l30.4,77.57h-15.2l31.12-77.57h23.64l-36.19,89.6h-23.52Z"/>
            <path class="cls-4" d="m658.05,304.32v-89.6h38.6c7.72,0,14.37,1.32,19.96,3.97,5.59,2.65,9.91,6.46,12.97,11.46,3.05,4.99,4.58,10.9,4.58,17.73s-1.53,12.57-4.58,17.47c-3.06,4.91-7.38,8.66-12.97,11.26-5.59,2.6-12.24,3.9-19.96,3.9h-25.33l10.62-10.62v34.43h-23.88Zm23.88-31.74l-10.62-11.65h23.88c4.99,0,8.7-1.15,11.16-3.46,2.45-2.3,3.68-5.5,3.68-9.6s-1.23-7.42-3.68-9.73c-2.45-2.3-6.17-3.46-11.16-3.46h-23.88l10.62-11.65v49.54Zm28.35,31.74l-20.99-32.64h25.45l21.11,32.64h-25.57Z"/>
          </g>
          <g>
            <path class="cls-4" d="m480.85,304.32v-89.6h38.6c7.72,0,14.37,1.32,19.96,3.97,5.59,2.65,9.91,6.46,12.97,11.46,3.05,4.99,4.58,10.9,4.58,17.73s-1.53,12.59-4.58,17.54c-3.06,4.95-7.38,8.77-12.97,11.46-5.59,2.69-12.24,4.03-19.96,4.03h-25.33l10.62-11.01v34.43h-23.88Zm23.88-31.74l-10.62-11.65h23.88c4.99,0,8.7-1.15,11.16-3.46,2.45-2.3,3.68-5.5,3.68-9.6s-1.23-7.42-3.68-9.73c-2.45-2.3-6.17-3.46-11.16-3.46h-23.88l10.62-11.65v49.54Z"/>
            <path class="cls-4" d="m593.39,304.32l-36.07-89.6h25.81l30.4,77.57h-15.2l31.12-77.57h23.64l-36.19,89.6h-23.52Z"/>
            <path class="cls-4" d="m658.05,304.32v-89.6h38.6c7.72,0,14.37,1.32,19.96,3.97,5.59,2.65,9.91,6.46,12.97,11.46,3.05,4.99,4.58,10.9,4.58,17.73s-1.53,12.57-4.58,17.47c-3.06,4.91-7.38,8.66-12.97,11.26-5.59,2.6-12.24,3.9-19.96,3.9h-25.33l10.62-10.62v34.43h-23.88Zm23.88-31.74l-10.62-11.65h23.88c4.99,0,8.7-1.15,11.16-3.46,2.45-2.3,3.68-5.5,3.68-9.6s-1.23-7.42-3.68-9.73c-2.45-2.3-6.17-3.46-11.16-3.46h-23.88l10.62-11.65v49.54Zm28.35,31.74l-20.99-32.64h25.45l21.11,32.64h-25.57Z"/>
          </g>
        </g>
      </g>
    </g>
    <g>
      <g>
        <rect class="cls-2" x="65.83" y="378.7" width="14.02" height="58"/>
        <rect class="cls-2" x="175.22" y="337.25" width="14.02" height="99.46"/>
        <rect class="cls-2" x="214.2" y="309.73" width="14.02" height="126.98"/>
        <rect class="cls-2" x="287.41" y="285.88" width="14.02" height="150.82"/>
        <rect class="cls-2" x="360.25" y="260.62" width="14.02" height="176.08"/>
        <rect class="cls-2" x="399.36" y="199.72" width="14.02" height="236.98"/>
        <rect class="cls-2" x="101.31" y="337.13" width="14.02" height="99.57"/>
      </g>
      <g>
        <g>
          <polygon class="cls-3" points="26.85 436.73 39.85 436.73 39.85 208.71 137.93 173.72 137.93 436.73 152.81 436.73 152.81 173.72 250.86 208.71 250.86 436.73 263.79 436.73 263.79 198.74 145.82 156.73 26.85 198.74 26.85 436.73"/>
          <polygon class="cls-3" points="230.84 187.01 217.84 182.38 217.84 93.73 331.34 52.73 444.84 93.73 444.84 436.73 432.84 436.73 432.84 102.73 337.85 69.73 337.85 436.73 324.85 436.73 324.85 69.73 230.84 102.73 230.84 187.01"/>
        </g>
        <g>
          <polygon class="cls-3" points="39.85 379.74 137.93 275.73 137.93 255.71 39.85 358.7 39.85 379.74"/>
          <polygon class="cls-3" points="263.79 275.73 446.84 81.73 457.84 91.71 263.79 296.73 263.79 275.73"/>
          <polygon class="cls-3" points="419.84 82.73 445.84 82.73 456.84 92.73 456.84 119.73 471.84 119.73 471.84 67.73 419.84 67.73 419.84 82.73"/>
        </g>
      </g>
      <g>
        <g>
          <path class="cls-3" d="m499.43,361.72c-2.66,0-5.13-.49-7.4-1.46-2.27-.97-4.24-2.34-5.92-4.09-1.67-1.76-2.97-3.82-3.89-6.18-.92-2.36-1.38-4.95-1.38-7.78s.46-5.41,1.38-7.78c.92-2.36,2.23-4.42,3.92-6.18,1.69-1.76,3.66-3.12,5.92-4.09,2.25-.97,4.71-1.46,7.38-1.46s4.89.44,7.09,1.32c2.2.88,4.09,2.22,5.66,4.01l-1.64,1.81c-1.54-1.61-3.24-2.78-5.1-3.49-1.86-.71-3.83-1.07-5.92-1.07-2.29,0-4.41.42-6.38,1.26-1.96.84-3.67,2.03-5.12,3.57-1.45,1.54-2.58,3.33-3.38,5.39-.8,2.05-1.2,4.29-1.2,6.71s.4,4.65,1.2,6.71c.8,2.05,1.93,3.85,3.38,5.39,1.45,1.54,3.16,2.73,5.12,3.57,1.96.84,4.09,1.26,6.38,1.26,2.08,0,4.05-.36,5.92-1.07,1.86-.71,3.56-1.9,5.1-3.54l1.64,1.81c-1.57,1.8-3.46,3.14-5.66,4.04-2.2.9-4.57,1.35-7.09,1.35Z"/>
          <path class="cls-3" d="m520.99,361.44l16.49-38.47h2.61l16.49,38.47h-2.82l-15.57-36.72h1.13l-15.52,36.72h-2.82Zm6.04-10.83l.87-2.36h21.46l.87,2.36h-23.2Z"/>
          <path class="cls-3" d="m570.11,361.44v-38.47h12.86c3,0,5.58.51,7.73,1.54,2.15,1.03,3.81,2.5,4.97,4.42,1.16,1.92,1.74,4.26,1.74,7.01s-.58,4.98-1.74,6.93c-1.16,1.94-2.82,3.43-4.97,4.45s-4.73,1.54-7.73,1.54h-11.42l1.18-1.32v13.91h-2.61Zm2.61-13.74l-1.18-1.37h11.42c3.86,0,6.79-.91,8.78-2.72,2-1.81,3-4.37,3-7.67s-1-5.91-3-7.72c-2-1.81-4.93-2.72-8.78-2.72h-11.42l1.18-1.37v23.58Z"/>
          <path class="cls-3" d="m613.24,361.44v-38.47h2.61v38.47h-2.61Z"/>
          <path class="cls-3" d="m642.23,361.44v-35.95h-12.91v-2.53h28.43v2.53h-12.91v35.95h-2.61Z"/>
          <path class="cls-3" d="m663.44,361.44l16.49-38.47h2.61l16.49,38.47h-2.82l-15.57-36.72h1.13l-15.52,36.72h-2.82Zm6.04-10.83l.87-2.36h21.46l.87,2.36h-23.2Z"/>
          <path class="cls-3" d="m712.56,361.44v-38.47h2.61v35.95h20.64v2.53h-23.25Z"/>
        </g>
        <g>
          <path class="cls-3" d="m480.85,304.32v-89.6h38.6c7.72,0,14.37,1.32,19.96,3.97,5.59,2.65,9.91,6.46,12.97,11.46,3.05,4.99,4.58,10.9,4.58,17.73s-1.53,12.59-4.58,17.54c-3.06,4.95-7.38,8.77-12.97,11.46-5.59,2.69-12.24,4.03-19.96,4.03h-25.33l10.62-11.01v34.43h-23.88Zm23.88-31.74l-10.62-11.65h23.88c4.99,0,8.7-1.15,11.16-3.46,2.45-2.3,3.68-5.5,3.68-9.6s-1.23-7.42-3.68-9.73c-2.45-2.3-6.17-3.46-11.16-3.46h-23.88l10.62-11.65v49.54Z"/>
          <path class="cls-3" d="m593.39,304.32l-36.07-89.6h25.81l30.4,77.57h-15.2l31.12-77.57h23.64l-36.19,89.6h-23.52Z"/>
          <path class="cls-3" d="m658.05,304.32v-89.6h38.6c7.72,0,14.37,1.32,19.96,3.97,5.59,2.65,9.91,6.46,12.97,11.46,3.05,4.99,4.58,10.9,4.58,17.73s-1.53,12.57-4.58,17.47c-3.06,4.91-7.38,8.66-12.97,11.26-5.59,2.6-12.24,3.9-19.96,3.9h-25.33l10.62-10.62v34.43h-23.88Zm23.88-31.74l-10.62-11.65h23.88c4.99,0,8.7-1.15,11.16-3.46,2.45-2.3,3.68-5.5,3.68-9.6s-1.23-7.42-3.68-9.73c-2.45-2.3-6.17-3.46-11.16-3.46h-23.88l10.62-11.65v49.54Zm28.35,31.74l-20.99-32.64h25.45l21.11,32.64h-25.57Z"/>
        </g>
      </g>
    </g>
  </g>
</svg>